# xmcd CD database file generated by OrangeCD 5.2
#
# Track frame offsets:
#	150
#	13338
#	26049
#	38319
#	49618
#	65962
#	82174
#	94840
#	107800
#	119545
#	133981
#	145582
#	159924
#	173316
#	187728
#	203069
#	217388
#	230326
#
# Disc length: 3269 seconds
#
# Revision: 0
# Processed by: cddbd v1.5.2PL0 Copyright (c) Steve Scherf et al.
# Submitted via: OrangeCD 5.2
#
DISCID=fa0cc312
DTITLE=Various Artist - The Million Sellers of the 30s 1936
DYEAR=2006
DGENRE=Jazz
TTITLE0=A Fine Romance - Fred Astaire
TTITLE1=All My Life - Fats Waller and His Rhythm
TTITLE2=Baby Won't You Please Come Home - Freddy Gardner
TTITLE3=Goody Goody - Benny Goodman and His Orchestra
TTITLE4=I'm Getting Sentimental Over You - Tommy Dorsey and His Orchestra
TTITLE5=Indian Love Call - Nelson Eddy and Jeanette Macdonald
TTITLE6=It's a Sin to Tell a Lie - Vera Lynn
TTITLE7=Japanese Sandman - Freddy Gardner
TTITLE8=More Than You Know - Mildred Bailey
TTITLE9=Oh' Lady Be Good - Count Basie and His Orchestra
TTITLE10=Ol' Man River - Paul Robeson
TTITLE11=Pennies From Heaven - Bing Crosby
TTITLE12=Pick Yourself Up - Fred Astaire
TTITLE13=Stompin' At the Savoy - Benny Goodman and His Orchestra
TTITLE14=The Music Goes Round and Round - Tommy Dorsey's Clambake Seven
TTITLE15=The Way You Look Tonight - Fred Astaire
TTITLE16=The Window Cleaner - George Formby
TTITLE17=These Foolish Things - Billie Holiday
EXTD=
EXTT0=
EXTT1=
EXTT2=
EXTT3=
EXTT4=
EXTT5=
EXTT6=
EXTT7=
EXTT8=
EXTT9=
EXTT10=
EXTT11=
EXTT12=
EXTT13=
EXTT14=
EXTT15=
EXTT16=
EXTT17=
PLAYORDER=
